<svg width="24" height="24" viewBox="0 0 24 24" fill="none" xmlns="http://www.w3.org/2000/svg">
  <path d="M12 0C5.372 0 0 5.372 0 12c0 5.302 3.438 9.8 8.208 11.387.6.112.822-.262.822-.577 0-.285-.01-1.04-.015-2.04-3.338.724-4.042-1.613-4.042-1.613-.546-1.387-1.332-1.754-1.332-1.754-1.088-.744.082-.728.082-.728 1.205.084 1.838 1.24 1.838 1.24 1.07 1.834 2.808 1.305 3.494.998.108-.778.418-1.305.76-1.605-2.664-.3-5.466-1.332-5.466-5.93 0-1.31.465-2.383 1.232-3.223-.124-.3-.534-1.523.116-3.176 0 0 1.008-.322 3.3 1.232.958-.266 1.982-.398 3.002-.402 1.02.004 2.044.136 3.004.402 2.29-1.554 3.296-1.232 3.296-1.232.65 1.653.24 2.876.12 3.176.75.84 1.206 1.913 1.206 3.223 0 4.608-2.806 5.625-5.475 5.92.432.372.81 1.096.81 2.207 0 1.594-.015 2.876-.015 3.271 0 .317.214.694.828.574C20.566 21.796 24 17.298 24 12c0-6.628-5.372-12-12-12z" fill="white"/>
</svg>
