<svg width="24" height="24" viewBox="0 0 24 24" fill="none" xmlns="http://www.w3.org/2000/svg">
  <path d="M24 4.566C23.042 5.087 21.982 5.476 20.857 5.693C21.983 5.096 22.847 4.07 23.112 2.795C22.053 3.333 20.858 3.71 19.593 3.876C18.605 2.802 17.13 2 15.5 2C12.656 2 10.343 4.313 10.343 7.157C10.343 7.743 10.396 8.316 10.493 8.878C6.877 8.658 3.673 6.845 1.49 4.098C1.115 4.744 0.897 5.525 0.897 6.351C0.897 7.742 1.657 9.012 2.77 9.719C1.847 9.699 1.011 9.451 0.336 9.001V9.063C0.336 11.864 2.606 14.087 5.297 14.603C4.811 14.757 4.286 14.836 3.753 14.836C3.463 14.836 3.182 14.813 2.908 14.77C3.488 16.869 5.314 18.3 7.502 18.339C6.098 19.439 4.306 20 2.42 20C1.883 20 1.363 19.969 0.856 19.902C3.071 21.072 5.629 22 8.42 22C15.5 22 20.688 15.575 20.688 7.807C20.688 7.607 20.682 7.408 20.671 7.209C21.767 6.568 22.737 5.714 23.513 4.71Z" fill="white"/>
</svg>
