<?xml version="1.0" standalone="no"?>
<!DOCTYPE svg PUBLIC "-//W3C//DTD SVG 20010904//EN"
 "http://www.w3.org/TR/2001/REC-SVG-20010904/DTD/svg10.dtd">
<svg version="1.0" xmlns="http://www.w3.org/2000/svg"
 width="1080.000000pt" height="1080.000000pt" viewBox="0 0 1080.000000 1080.000000"
 preserveAspectRatio="xMidYMid meet">

<g transform="translate(0.000000,1080.000000) scale(0.100000,-0.100000)"
fill="#FFFFFF" stroke="none">
<path d="M5547 8335 c-80 -282 -214 -537 -376 -718 -55 -62 -176 -154 -250
-191 -132 -67 -240 -92 -701 -166 -342 -55 -811 -160 -1113 -251 -475 -142
-795 -326 -989 -569 -294 -366 -366 -960 -167 -1377 88 -184 214 -310 404
-405 151 -76 273 -102 446 -96 109 4 138 9 244 42 291 93 476 235 575 441 47
99 55 133 75 320 37 342 96 537 182 605 21 17 193 106 268 139 5 2 -14 -22
-44 -55 -87 -98 -156 -229 -186 -356 -8 -35 -24 -150 -35 -256 -34 -325 -101
-477 -321 -738 -44 -51 -79 -96 -79 -99 0 -11 77 5 153 31 201 68 365 215 458
409 63 131 79 210 89 460 12 297 41 426 142 628 l48 97 -102 0 c-115 0 -385
-32 -463 -55 -142 -41 -248 -159 -323 -358 -48 -128 -70 -246 -82 -435 -5 -89
-14 -182 -20 -206 -26 -116 -83 -219 -203 -368 -76 -95 -80 -98 -145 -119
-239 -75 -543 9 -748 206 -58 56 -81 88 -113 155 -104 217 -125 464 -61 735
112 481 397 725 1095 939 232 71 650 182 930 247 689 160 759 183 947 321 214
157 390 463 457 793 21 106 46 315 39 335 -2 7 -16 -32 -31 -85z"/>
<path d="M5653 7123 c-170 -170 -288 -404 -351 -703 -27 -126 -39 -236 -52
-465 -13 -242 -18 -306 -36 -435 -41 -288 -156 -596 -313 -837 -33 -51 -57
-93 -53 -93 26 0 187 115 265 190 110 105 190 213 261 353 124 244 176 515
176 926 1 427 51 768 154 1042 19 51 33 95 32 97 -2 2 -39 -32 -83 -75z"/>
<path d="M4567 6810 c-59 -50 -107 -93 -107 -95 0 -2 34 -47 75 -100 41 -53
86 -116 101 -140 l26 -45 43 31 c80 58 155 130 155 150 0 39 -55 127 -167 267
l-19 23 -107 -91z"/>
<path d="M6125 6414 c-145 -121 -136 -101 -72 -181 30 -37 77 -101 105 -140
l49 -73 64 49 c35 27 79 65 98 84 41 44 39 70 -14 153 -27 42 -135 184 -139
184 -1 0 -41 -34 -91 -76z"/>
<path d="M4914 6189 c-128 -64 -239 -183 -310 -334 -55 -118 -70 -184 -94
-409 -11 -102 -26 -213 -35 -246 -46 -177 -145 -339 -364 -593 -15 -18 -14
-18 24 -12 74 13 204 62 276 105 135 80 261 222 325 365 48 109 64 204 74 445
13 300 47 447 149 636 23 42 35 74 28 74 -7 0 -39 -14 -73 -31z"/>
<path d="M7194 6181 c-102 -51 -180 -122 -248 -224 -101 -153 -126 -236 -156
-525 -34 -325 -101 -477 -322 -739 -44 -52 -77 -97 -74 -101 13 -12 154 30
241 73 165 82 279 196 361 360 68 138 83 214 94 470 12 297 41 426 142 628 26
53 46 97 44 97 -2 0 -39 -18 -82 -39z"/>
<path d="M7802 6195 c-192 -89 -338 -278 -392 -508 -11 -45 -26 -154 -35 -242
-19 -197 -44 -303 -95 -412 -51 -109 -113 -203 -222 -333 -60 -71 -83 -106
-73 -108 25 -6 138 27 212 62 193 92 331 236 412 430 40 97 58 213 66 431 9
264 46 426 140 609 25 49 44 90 42 92 -1 2 -26 -8 -55 -21z"/>
<path d="M8353 6195 c-195 -90 -343 -287 -398 -529 -8 -34 -21 -135 -30 -226
-18 -189 -41 -292 -91 -399 -52 -113 -111 -203 -218 -331 -64 -76 -91 -116
-81 -118 30 -7 144 30 241 78 217 107 377 314 424 551 11 57 21 166 25 279 10
283 44 430 141 624 25 49 43 90 41 92 -1 2 -26 -8 -54 -21z"/>
<path d="M5904 5710 c-107 -61 -170 -205 -162 -367 5 -91 22 -140 74 -209 35
-45 115 -86 175 -88 27 0 49 -3 49 -6 0 -12 -81 -162 -108 -202 -42 -61 -137
-151 -206 -197 l-59 -39 44 -7 c106 -15 267 37 384 126 116 87 216 238 251
379 22 88 14 259 -16 350 -42 124 -119 225 -207 269 -65 32 -154 29 -219 -9z
m156 -433 c12 -66 7 -159 -8 -184 -12 -19 -76 29 -97 73 -9 20 -20 54 -22 75
-6 44 18 129 50 173 l21 30 22 -49 c13 -27 28 -80 34 -118z"/>
<path d="M4037 4120 c-89 -23 -137 -68 -137 -131 0 -76 87 -128 215 -129 91 0
165 -40 165 -88 0 -79 -152 -124 -293 -87 -79 20 -89 20 -85 -7 4 -32 62 -46
188 -47 91 -1 112 2 157 23 59 28 83 64 83 124 0 79 -56 113 -219 132 -51 6
-106 17 -122 26 -54 28 -47 89 14 121 48 24 162 29 231 9 62 -18 86 -16 86 8
0 36 -195 68 -283 46z"/>
<path d="M4447 4124 c-11 -12 -8 -325 4 -369 14 -50 63 -102 109 -115 19 -5
78 -10 130 -10 109 0 159 17 202 69 34 40 40 81 36 271 -3 147 -4 155 -23 155
-19 0 -20 -8 -25 -180 -6 -204 -12 -224 -78 -253 -57 -25 -197 -23 -242 4 -57
33 -64 58 -70 254 -4 147 -7 175 -20 178 -9 1 -19 0 -23 -4z"/>
<path d="M5776 4108 c-54 -83 -253 -455 -249 -465 3 -7 13 -13 23 -13 14 0 49
55 132 205 62 113 115 205 118 205 3 0 55 -91 116 -202 85 -156 116 -204 133
-206 15 -3 21 2 21 16 0 18 -222 433 -249 466 -18 22 -28 20 -45 -6z"/>
<path d="M6217 4123 c-4 -3 -7 -116 -7 -250 l0 -244 23 3 c22 3 22 5 27 200
l5 197 185 -199 c101 -110 190 -202 196 -204 30 -12 34 23 32 260 -3 231 -4
239 -23 239 -19 0 -20 -8 -23 -197 -1 -109 -6 -198 -11 -198 -4 0 -77 75 -162
166 -85 92 -168 182 -185 200 -32 34 -45 40 -57 27z"/>
<path d="M7063 4118 c-27 -35 -253 -456 -253 -472 0 -12 6 -16 22 -14 16 2 46
48 129 197 59 106 112 198 117 203 6 6 50 -65 122 -196 83 -154 116 -206 130
-206 10 0 22 5 25 10 7 11 -240 470 -259 482 -16 11 -22 10 -33 -4z"/>
<path d="M5084 4107 c-2 -7 -3 -116 -2 -242 l3 -230 25 0 25 0 3 112 3 112
152 3 c144 3 152 4 152 23 0 19 -8 20 -152 23 l-153 3 0 84 0 85 163 0 c90 0
166 3 170 6 3 3 3 12 0 20 -7 20 -381 21 -389 1z"/>
</g>
</svg>
